<?xml version="1.0" encoding="utf-8"?>
<!-- Generator: Adobe Illustrator 21.0.0, SVG Export Plug-In . SVG Version: 6.00 Build 0)  -->
<svg version="1.1" id="Layer_1" xmlns="http://www.w3.org/2000/svg" xmlns:xlink="http://www.w3.org/1999/xlink" x="0px" y="0px"
	 viewBox="0 0 940 229" style="enable-background:new 0 0 940 229;" xml:space="preserve">
<style type="text/css">
	.st0{fill:#FFFFFF;}
	.st1{fill:none;stroke:#1F2C4E;stroke-width:5;}
	.st2{fill:#1F2C4E;}
</style>
<g>
	<path class="st0" d="M937.5,156.5v-145H2.5v145H400h1l0.7,0.7c21.9,21.9,43.8,43.8,65.7,65.7v-64v-2.5h2.5h467.6V156.5z"/>
	<path class="st1" d="M937.5,156.4l0-144.9H2.5v145H400h1l0.7,0.7c21.9,21.9,43.8,43.8,65.7,65.7v-64v-2.5h2.5H940L937.5,156.4z"/>
	<path class="st2" d="M116,22c6.1,0,11-4.9,11-11s-4.9-11-11-11s-11,4.9-11,11S109.9,22,116,22"/>
</g>
</svg>
